<?xml version="1.0" standalone="no"?>
<!DOCTYPE svg PUBLIC "-//W3C//DTD SVG 20010904//EN"
 "http://www.w3.org/TR/2001/REC-SVG-20010904/DTD/svg10.dtd">
<svg version="1.0" xmlns="http://www.w3.org/2000/svg"
 width="50.000000pt" height="50.000000pt" viewBox="0 0 50.000000 50.000000"
 preserveAspectRatio="xMidYMid meet">

<g transform="translate(0.000000,50.000000) scale(0.100000,-0.100000)"
fill="#000000" stroke="none">
<path d="M216 464 c-31 -30 -9 -84 34 -84 24 0 50 26 50 50 0 24 -26 50 -50
50 -10 0 -26 -7 -34 -16z m59 -34 c0 -18 -6 -26 -23 -28 -13 -2 -25 3 -28 12
-10 26 4 48 28 44 17 -2 23 -10 23 -28z"/>
<path d="M230 430 c0 -5 9 -10 20 -10 11 0 20 5 20 10 0 6 -9 10 -20 10 -11 0
-20 -4 -20 -10z"/>
<path d="M332 413 c-12 -13 -20 -28 -17 -34 4 -5 -23 -9 -64 -9 l-71 0 -25
-40 c-16 -25 -26 -57 -28 -87 -2 -42 1 -48 18 -48 14 0 21 9 26 33 7 33 16 49
23 41 2 -2 -3 -53 -11 -113 -8 -60 -11 -116 -9 -123 4 -8 16 -13 28 -11 20 3
24 11 32 76 5 39 12 72 16 72 4 0 11 -33 16 -72 8 -64 12 -73 31 -76 31 -5 35
19 19 138 -7 58 -12 107 -10 109 7 8 16 -8 23 -41 5 -24 12 -33 26 -33 17 0
20 6 18 47 -2 25 -12 62 -23 81 -17 28 -18 37 -8 44 7 4 14 15 14 23 1 8 5 23
9 33 10 24 -6 20 -33 -10z m-4 -95 c11 -18 23 -51 26 -73 l5 -40 -10 35 c-5
20 -21 49 -34 65 l-24 30 -2 -35 c-1 -19 -2 -41 -2 -47 1 -8 -13 -13 -37 -13
-24 0 -38 5 -37 13 0 6 -1 28 -2 47 l-2 35 -24 -30 c-13 -16 -29 -45 -34 -65
l-10 -35 5 40 c3 22 15 55 26 73 19 30 23 32 78 32 55 0 59 -2 78 -32z m-35
-140 c4 -24 9 -64 13 -90 4 -31 3 -48 -4 -48 -6 0 -13 26 -17 57 -3 32 -7 65
-8 73 -1 9 -13 15 -27 15 -14 0 -26 -6 -27 -15 -1 -8 -5 -41 -8 -72 -4 -32
-11 -58 -17 -58 -7 0 -8 17 -4 48 4 26 9 66 13 90 5 41 6 42 43 42 37 0 38 -1
43 -42z"/>
</g>
</svg>
