<?xml version="1.0" standalone="no"?>
<!DOCTYPE svg PUBLIC "-//W3C//DTD SVG 20010904//EN"
 "http://www.w3.org/TR/2001/REC-SVG-20010904/DTD/svg10.dtd">
<svg version="1.0" xmlns="http://www.w3.org/2000/svg"
 width="64.000000pt" height="64.000000pt" viewBox="0 0 64.000000 64.000000"
 preserveAspectRatio="xMidYMid meet">

<g transform="translate(0.000000,64.000000) scale(0.100000,-0.100000)"
fill="#000000" stroke="none">
<path d="M282 515 c-43 -36 -45 -89 -4 -126 50 -47 115 -88 126 -82 24 14 83
58 109 82 40 36 38 90 -5 126 -27 23 -38 26 -67 20 -20 -3 -40 -6 -46 -6 -5 0
-26 3 -46 6 -29 6 -40 3 -67 -20z m93 -19 c16 -11 23 -11 47 3 25 14 30 15 55
1 20 -11 29 -25 31 -47 3 -28 -3 -36 -51 -72 -30 -23 -57 -41 -61 -41 -4 0
-31 18 -61 40 -45 33 -55 46 -55 70 0 48 55 75 95 46z"/>
<path d="M67 294 c-13 -14 6 -24 44 -24 l39 0 0 -64 0 -65 -42 -3 c-69 -5 -40
-23 37 -24 39 0 94 -8 124 -17 30 -9 67 -17 83 -17 31 0 196 79 216 103 14 17
7 43 -13 51 -19 7 -88 -17 -93 -32 -5 -15 18 -15 52 -2 14 5 26 6 26 2 0 -14
-170 -92 -198 -91 -15 0 -49 8 -77 18 l-50 18 -3 53 -3 53 41 -6 c23 -3 49
-12 59 -21 10 -9 35 -16 59 -16 66 0 49 -19 -20 -22 -86 -4 -79 -22 9 -26 64
-3 73 -1 83 18 18 34 -3 60 -50 60 -22 0 -57 9 -77 20 -23 12 -57 20 -85 20
-26 0 -50 5 -53 10 -7 11 -98 14 -108 4z"/>
</g>
</svg>
