<?xml version="1.0" standalone="no"?>
<!DOCTYPE svg PUBLIC "-//W3C//DTD SVG 20010904//EN"
 "http://www.w3.org/TR/2001/REC-SVG-20010904/DTD/svg10.dtd">
<svg version="1.0" xmlns="http://www.w3.org/2000/svg"
 width="66.000000pt" height="66.000000pt" viewBox="0 0 66.000000 66.000000"
 preserveAspectRatio="xMidYMid meet">

<g transform="translate(0.000000,66.000000) scale(0.100000,-0.100000)"
fill="#000000" stroke="none">
<path d="M269 589 c-66 -71 -65 -215 2 -278 12 -11 26 -21 30 -21 20 0 30 78
27 200 -3 144 -8 153 -59 99z"/>
<path d="M348 613 c-1 -5 -2 -71 -2 -148 -1 -77 -5 -148 -10 -157 -14 -30 19
-22 51 12 36 38 51 82 52 147 1 59 -11 98 -41 131 -21 22 -46 29 -50 15z"/>
<path d="M62 322 c-18 -12 12 -47 93 -112 36 -29 77 -72 91 -96 14 -24 30 -44
34 -44 15 0 21 58 11 97 -13 48 -50 98 -95 131 -36 25 -112 39 -134 24z"/>
<path d="M495 315 c-94 -50 -153 -157 -125 -230 l11 -29 28 48 c16 29 60 76
107 115 90 76 101 104 44 109 -19 1 -48 -5 -65 -13z"/>
<path d="M605 276 c-10 -14 -46 -49 -82 -77 -55 -43 -123 -126 -123 -150 0
-14 47 -18 84 -8 78 21 155 121 156 199 0 54 -14 68 -35 36z"/>
<path d="M26 274 c-29 -74 57 -207 150 -233 34 -9 84 -6 84 5 0 24 -51 92 -97
131 -32 26 -72 63 -90 81 -36 37 -39 38 -47 16z"/>
</g>
</svg>
