<?xml version="1.0" standalone="no"?>
<!DOCTYPE svg PUBLIC "-//W3C//DTD SVG 20010904//EN"
 "http://www.w3.org/TR/2001/REC-SVG-20010904/DTD/svg10.dtd">
<svg version="1.0" xmlns="http://www.w3.org/2000/svg"
 width="543.000000pt" height="295.000000pt" viewBox="0 0 543.000000 295.000000"
 preserveAspectRatio="xMidYMid meet">

<g transform="translate(0.000000,295.000000) scale(0.100000,-0.100000)"
fill="#000000" stroke="none">
<path d="M1585 2905 l-27 -26 6 -570 c4 -433 9 -577 18 -597 11 -23 20 -27 60
-30 26 -2 56 2 68 8 20 11 20 18 19 458 -1 246 2 495 6 553 9 128 1 195 -24
209 -10 5 -37 12 -59 16 -35 5 -44 3 -67 -21z"/>
<path d="M2586 2909 c-30 -44 -14 -112 29 -123 27 -7 64 -70 65 -112 0 -36 23
-56 64 -56 59 0 79 25 74 94 -7 100 -91 200 -179 214 -30 5 -39 2 -53 -17z"/>
<path d="M3553 2920 c-19 -7 -23 -18 -24 -52 0 -24 -4 -130 -7 -236 -8 -231
-3 -222 -129 -222 -70 0 -86 -3 -103 -20 -26 -26 -27 -83 0 -110 18 -18 28
-19 108 -14 70 5 91 4 98 -7 5 -8 11 -132 14 -276 3 -179 9 -266 17 -274 6 -6
41 -14 77 -16 l66 -6 0 611 c0 336 -4 613 -8 616 -19 11 -88 15 -109 6z"/>
<path d="M38 2905 c-24 -13 -27 -22 -34 -92 -8 -92 2 -1385 12 -1426 4 -16 17
-35 29 -43 20 -13 27 -13 58 0 20 8 40 23 45 33 6 11 10 296 10 758 1 819 4
785 -61 785 -17 -1 -44 -7 -59 -15z"/>
<path d="M305 2913 c-54 -14 -70 -61 -35 -106 15 -18 35 -28 81 -36 39 -6 71
-19 86 -33 73 -69 75 -349 2 -442 -11 -15 -47 -40 -79 -56 -88 -44 -120 -75
-120 -116 0 -25 6 -38 26 -50 23 -16 29 -16 87 0 34 10 92 33 129 53 137 72
162 132 163 388 0 163 -1 172 -26 225 -31 65 -89 134 -131 156 -31 16 -148 27
-183 17z"/>
<path d="M906 2897 c-13 -13 -27 -40 -31 -58 -3 -19 -2 -305 2 -637 8 -587 9
-604 28 -619 28 -20 113 -12 132 13 12 16 14 106 11 539 -2 286 -1 568 2 627
5 99 3 109 -16 128 -12 12 -39 24 -62 27 -34 5 -44 1 -66 -20z"/>
<path d="M1293 2906 c-38 -18 -51 -53 -33 -97 17 -40 37 -49 113 -49 49 0 68
4 80 18 22 25 23 105 1 123 -23 19 -123 22 -161 5z"/>
<path d="M1875 2913 c-16 -2 -36 -12 -42 -21 -18 -23 -16 -97 3 -116 23 -24
154 -24 190 -1 41 26 37 102 -6 125 -24 13 -102 20 -145 13z"/>
<path d="M2364 2909 c-48 -14 -120 -84 -151 -147 l-28 -57 0 -360 c0 -393 7
-451 60 -521 48 -63 194 -106 235 -69 24 22 35 76 21 103 -6 11 -29 24 -55 31
-27 7 -53 22 -69 40 -24 29 -25 36 -32 243 -4 117 -6 276 -4 353 5 167 18 201
94 252 56 37 65 48 65 85 0 49 -9 58 -59 57 -25 0 -60 -5 -77 -10z"/>
<path d="M3073 2910 l-23 -9 0 -575 c0 -559 1 -576 19 -586 11 -5 40 -10 65
-10 34 0 46 4 50 18 13 48 18 213 18 662 0 404 -2 494 -13 501 -18 11 -87 10
-116 -1z"/>
<path d="M4283 2911 c-29 -4 -58 -12 -65 -19 -18 -18 -16 -89 4 -108 33 -33
290 -31 323 3 9 8 15 33 15 59 0 42 -2 46 -35 60 -35 14 -143 17 -242 5z"/>
<path d="M4834 2908 c-46 -22 -47 -34 -52 -593 -9 -859 -10 -791 15 -816 30
-31 117 -39 128 -13 4 11 7 195 6 409 0 215 3 515 8 669 6 184 5 290 -2 311
-13 43 -55 57 -103 33z"/>
<path d="M5063 2912 c-19 -12 -26 -59 -13 -96 9 -28 19 -37 48 -46 20 -5 49
-10 64 -10 47 0 77 -37 89 -110 17 -105 15 -260 -3 -295 -32 -61 -88 -95 -154
-95 -77 0 -95 -79 -50 -220 13 -41 42 -138 66 -215 23 -77 65 -210 93 -295
l52 -155 45 -22 c51 -27 92 -29 110 -8 12 15 -7 86 -93 345 -14 41 -34 107
-45 145 -11 39 -36 116 -56 173 -20 57 -34 107 -31 111 2 5 32 19 66 31 126
48 163 122 163 325 -1 129 -17 258 -41 316 -19 48 -56 74 -149 104 -76 25
-138 32 -161 17z"/>
<path d="M3977 2896 c-11 -11 -15 -71 -20 -278 -8 -312 -7 -795 2 -893 l6 -70
48 -9 c75 -15 79 -7 88 180 4 86 9 358 11 604 2 368 1 450 -11 463 -17 21
-103 23 -124 3z"/>
<path d="M4218 2379 c-26 -10 -28 -15 -28 -64 0 -31 5 -57 13 -64 21 -17 135
-29 206 -22 70 8 86 21 97 78 9 49 -6 59 -93 66 -43 4 -98 9 -123 11 -25 3
-57 1 -72 -5z"/>
<path d="M2710 2008 c-11 -18 -20 -38 -20 -45 0 -17 -50 -73 -65 -73 -38 0
-60 -93 -29 -124 23 -23 101 -21 142 4 40 24 92 128 100 197 6 55 -11 73 -70
73 -32 0 -41 -5 -58 -32z"/>
<path d="M4190 1738 c-13 -14 -20 -35 -20 -59 0 -44 23 -63 90 -72 45 -7 109
-19 165 -32 46 -10 85 24 85 74 0 62 -21 73 -172 96 -128 19 -123 19 -148 -7z"/>
<path d="M1784 1214 c-21 -14 -52 -39 -68 -56 -20 -21 -35 -28 -50 -25 -126
30 -157 38 -194 51 -70 26 -222 48 -293 44 -87 -7 -142 -37 -169 -93 -20 -41
-18 -79 3 -72 6 2 15 16 20 33 32 100 171 120 402 58 55 -15 129 -35 165 -44
57 -15 65 -21 68 -43 3 -23 -4 -29 -52 -52 -93 -44 -186 -167 -186 -246 0
-116 73 -199 176 -199 95 0 172 61 181 144 4 35 1 47 -22 74 -23 27 -34 32
-70 32 -34 0 -47 -5 -59 -22 -20 -29 -5 -48 24 -30 30 18 57 15 74 -10 24 -34
19 -65 -16 -104 -67 -72 -183 -62 -222 21 -41 87 -31 139 45 228 35 40 115 96
123 85 2 -2 9 -18 16 -37 16 -41 69 -68 100 -51 28 15 42 45 34 76 -7 27 -56
64 -86 64 -11 0 -18 8 -18 20 0 18 7 20 63 20 70 0 129 14 146 34 6 7 14 27
17 44 5 25 1 36 -19 56 -34 34 -82 34 -133 0z m106 -33 c12 -24 -8 -48 -46
-56 -13 -3 -34 -7 -47 -10 -12 -2 -29 0 -37 5 -12 7 -11 12 5 31 22 24 70 48
97 49 10 0 22 -9 28 -19z m-130 -201 c19 -19 18 -50 -1 -50 -15 0 -49 39 -49
55 0 21 26 19 50 -5z"/>
<path d="M2020 1064 c-44 -32 -59 -49 -52 -56 8 -8 22 -4 47 11 44 25 45 26
45 4 0 -10 7 -36 15 -58 21 -58 18 -89 -10 -119 -37 -39 -74 -33 -98 17 -19
40 -37 41 -37 2 0 -45 18 -74 52 -83 40 -11 73 0 110 35 37 35 44 81 23 145
-9 28 -15 72 -13 96 2 27 -2 47 -8 49 -6 2 -39 -17 -74 -43z"/>
<path d="M2284 1084 c-55 -37 -102 -93 -114 -138 -6 -21 -9 -40 -7 -43 3 -2
20 15 38 38 61 77 106 119 128 119 29 0 26 -16 -8 -56 -75 -85 -141 -248 -141
-350 0 -33 5 -65 12 -72 18 -18 53 -15 71 6 23 25 61 137 103 301 18 74 38
139 43 144 16 16 57 -1 69 -28 35 -76 -8 -173 -70 -160 -27 6 -29 5 -26 -17 2
-18 10 -24 37 -26 60 -6 113 65 113 150 0 76 -40 127 -102 128 -19 0 -44 7
-54 15 -28 21 -48 19 -92 -11z m25 -244 c-40 -138 -70 -220 -80 -220 -17 0 -9
69 16 147 23 73 82 190 90 181 2 -2 -9 -51 -26 -108z"/>
<path d="M2602 1048 c-22 -36 -28 -56 -21 -63 7 -7 19 0 39 22 l29 32 33 -17
c18 -9 34 -17 36 -18 1 0 -9 -26 -23 -58 -42 -94 -29 -156 33 -156 15 0 42 9
60 20 25 16 32 26 32 52 l0 31 -22 -20 c-81 -73 -107 -40 -57 72 10 22 19 55
19 73 0 28 -3 32 -26 32 -14 0 -39 11 -56 25 -16 14 -33 25 -36 25 -4 0 -22
-23 -40 -52z"/>
<path d="M3247 1071 c-20 -16 -69 -64 -108 -107 -75 -84 -122 -113 -181 -114
-40 0 -55 21 -43 60 5 16 15 20 56 20 93 0 142 51 114 117 -31 74 -114 54
-181 -45 -27 -41 -34 -61 -34 -99 0 -92 52 -121 151 -84 57 22 81 42 183 149
l59 63 19 -53 c11 -29 22 -60 24 -68 6 -19 -32 -70 -51 -70 -8 0 -22 14 -30
31 -20 37 -39 33 -43 -8 -4 -38 26 -63 75 -63 77 0 112 108 64 198 -7 13 -12
35 -11 50 4 63 -8 67 -63 23z m-200 -48 c9 -23 -32 -53 -73 -53 l-35 0 16 29
c8 16 20 31 27 34 27 11 59 6 65 -10z"/>
<path d="M3508 1063 c-75 -63 -120 -120 -116 -145 3 -21 8 -18 64 35 33 31 65
57 71 57 14 0 43 -67 43 -100 0 -59 -71 -96 -84 -44 -9 34 -40 28 -44 -8 -4
-32 28 -68 60 -68 32 0 86 21 148 56 l55 32 12 -28 c14 -35 41 -50 86 -50 39
0 76 35 101 95 12 27 22 34 74 49 65 18 81 31 63 49 -8 8 -24 6 -58 -6 -27 -9
-51 -17 -55 -17 -5 0 -8 20 -8 44 0 36 -5 48 -26 65 -55 43 -134 16 -136 -46
-1 -44 23 -78 72 -99 22 -10 40 -21 40 -25 0 -4 -12 -22 -26 -39 -21 -25 -33
-30 -58 -28 l-31 3 3 58 c2 44 0 57 -11 57 -8 0 -20 -7 -28 -16 -12 -15 -93
-74 -101 -74 -2 0 -2 16 0 35 3 23 -3 45 -17 68 -13 22 -21 51 -21 81 0 57
-12 59 -72 9z m370 -55 c4 -58 -14 -64 -59 -18 -26 25 -28 33 -19 50 9 16 19
20 43 18 31 -3 32 -5 35 -50z"/>
<path d="M2527 601 c-36 -23 -59 -57 -55 -78 2 -12 12 -8 46 21 51 42 91 47
136 17 37 -24 55 -57 55 -96 1 -50 -10 -59 -57 -44 -54 16 -92 -6 -92 -51 0
-47 40 -59 116 -35 18 5 23 1 33 -26 18 -52 14 -127 -10 -169 -53 -94 -213
-120 -295 -48 -31 27 -33 33 -20 47 7 9 28 44 45 79 39 77 59 82 62 15 3 -52
9 -65 25 -52 23 19 17 84 -11 118 l-26 30 30 59 c17 33 44 74 62 91 22 23 29
35 21 43 -19 19 -70 -30 -112 -107 -38 -69 -43 -73 -81 -78 -80 -11 -124 -89
-95 -173 l15 -43 -32 -20 c-18 -10 -47 -22 -65 -26 -42 -9 -36 -29 9 -33 25
-2 46 5 73 23 38 26 39 26 60 7 31 -29 55 -39 116 -50 105 -20 198 15 253 96
24 34 28 50 28 106 0 43 -6 80 -19 109 -17 38 -18 47 -6 68 33 59 2 162 -59
199 -41 26 -113 26 -150 1z m121 -223 c-5 -15 -48 -24 -48 -10 0 14 12 22 33
22 10 0 17 -5 15 -12z m-243 -105 c-10 -41 -55 -114 -66 -108 -5 4 -9 24 -9
46 0 29 7 47 25 64 34 35 59 33 50 -2z"/>
<path d="M3044 505 l-14 -36 -23 26 c-12 14 -36 28 -53 31 -62 12 -123 -75
-127 -180 -2 -42 2 -51 25 -69 26 -19 28 -20 72 -3 24 9 50 24 56 32 18 20 27
17 34 -11 5 -20 13 -25 39 -25 22 0 41 8 54 22 20 22 98 140 105 158 2 4 24 3
50 -4 36 -9 45 -15 38 -26 -4 -8 -16 -39 -25 -67 -16 -50 -16 -55 0 -79 13
-21 22 -25 43 -19 31 7 82 52 82 72 0 26 -30 26 -51 -1 -45 -57 -52 -17 -13
68 34 75 27 101 -27 92 -34 -5 -43 -2 -70 24 -36 34 -53 29 -63 -22 -10 -51
-94 -178 -118 -178 -15 0 -8 76 12 135 11 32 20 66 20 77 0 31 -30 20 -46 -17z
m-25 -61 c7 -5 -47 -89 -71 -110 -32 -29 -53 -35 -73 -20 -16 12 -16 16 -1 70
10 32 28 69 42 83 l24 24 38 -22 c20 -12 39 -24 41 -25z"/>
</g>
</svg>
