<?xml version="1.0" standalone="no"?>
<!DOCTYPE svg PUBLIC "-//W3C//DTD SVG 20010904//EN"
 "http://www.w3.org/TR/2001/REC-SVG-20010904/DTD/svg10.dtd">
<svg version="1.0" xmlns="http://www.w3.org/2000/svg"
 width="324.000000pt" height="313.000000pt" viewBox="0 0 324.000000 313.000000"
 preserveAspectRatio="xMidYMid meet">

<g transform="translate(0.000000,313.000000) scale(0.100000,-0.100000)"
fill="#000000" stroke="none">
<path d="M1595 3003 c-190 -12 -328 -26 -378 -39 -85 -22 -240 -95 -228 -107
10 -10 23 -15 121 -52 59 -22 125 -13 199 26 l56 31 121 -7 c96 -5 131 -4 174
9 66 20 162 20 215 1 71 -27 178 -45 258 -45 47 0 110 -8 160 -21 73 -19 99
-21 227 -16 150 7 284 27 303 46 24 24 -16 40 -133 51 -168 16 -224 25 -335
53 -90 22 -194 35 -549 67 -60 6 -121 9 -135 8 -14 -1 -48 -3 -76 -5z"/>
<path d="M893 2744 c-4 -10 6 -25 29 -44 63 -52 137 -237 123 -307 -2 -10 -6
-30 -10 -45 -9 -44 -60 -94 -110 -109 -35 -10 -45 -18 -45 -34 0 -12 -4 -25
-9 -31 -6 -5 -17 -61 -26 -124 -41 -304 -67 -486 -85 -605 -28 -181 -62 -464
-67 -562 l-4 -81 68 -72 c37 -40 93 -89 123 -110 72 -49 248 -140 269 -140 9
0 21 -4 26 -9 15 -14 140 -41 255 -56 241 -32 634 -5 769 51 20 8 56 20 81 25
25 6 100 37 168 70 103 50 135 71 197 132 l75 72 -11 40 c-6 22 -16 76 -24
120 -7 44 -23 132 -34 195 -12 63 -31 169 -41 235 -34 202 -47 278 -58 320 -6
22 -13 84 -17 137 -3 53 -11 112 -16 130 -11 33 -33 176 -70 437 -11 79 -22
148 -24 152 -3 4 0 19 6 33 9 19 20 26 40 26 35 0 44 -17 53 -95 4 -33 18
-126 32 -207 13 -80 21 -153 18 -162 -7 -18 13 -76 26 -76 10 0 25 39 55 145
48 166 147 470 161 493 13 20 13 23 -1 28 -9 4 -45 -1 -81 -11 -48 -13 -93
-17 -182 -14 -189 5 -222 3 -312 -19 -47 -12 -141 -28 -210 -36 -164 -20 -563
-25 -650 -8 -36 7 -103 19 -150 28 -163 30 -181 35 -247 69 -75 40 -81 41 -90
19z m980 -610 c103 -13 261 -131 311 -233 41 -82 49 -133 42 -244 -8 -115 -25
-162 -97 -264 -46 -65 -100 -112 -161 -144 -54 -28 -168 -44 -218 -31 -40 10
-41 10 -54 -23 -8 -17 -17 -47 -21 -66 -14 -64 -58 -154 -94 -193 -89 -95
-223 -102 -331 -16 -67 53 -110 166 -90 238 25 93 82 142 165 142 124 0 188
-126 104 -206 -24 -23 -30 -25 -45 -13 -12 10 -15 23 -10 56 5 37 3 45 -18 58
-71 47 -129 -76 -76 -163 22 -36 88 -71 133 -72 15 0 45 11 66 24 39 25 68 80
105 203 21 68 20 75 -10 134 -14 28 -24 60 -22 72 3 19 9 22 45 21 l42 -1 21
71 c64 218 82 258 153 333 43 46 56 54 81 51 26 -2 32 -8 34 -31 3 -21 -6 -37
-40 -70 -33 -32 -49 -61 -71 -122 -34 -99 -87 -308 -80 -315 2 -3 32 -5 66 -4
120 2 204 60 267 184 42 83 53 225 24 316 -21 68 -81 133 -161 176 -147 78
-424 16 -522 -118 -30 -41 -61 -129 -61 -174 0 -55 66 -102 120 -85 35 11 42
38 21 81 -24 48 -13 66 32 57 50 -9 77 -40 77 -87 0 -50 -28 -99 -72 -126 -48
-29 -153 -28 -199 3 -77 51 -99 165 -57 294 18 57 32 79 88 134 78 80 139 112
268 143 94 23 132 25 245 10z"/>
<path d="M454 2710 c-95 -19 -181 -76 -213 -142 -25 -52 -27 -111 -6 -211 8
-40 21 -112 29 -162 17 -106 67 -342 101 -480 58 -235 82 -277 189 -347 56
-36 62 -38 73 -22 7 10 13 35 13 55 0 32 -5 41 -35 59 -62 38 -80 74 -119 235
-20 83 -43 179 -52 215 -41 168 -95 432 -100 495 -6 68 -6 71 27 114 61 80 76
86 197 86 95 -1 114 -4 164 -28 60 -28 114 -87 124 -136 9 -47 33 -91 49 -91
23 0 46 44 47 92 1 55 -37 133 -85 175 -19 17 -69 47 -111 67 -71 33 -83 36
-164 35 -48 -1 -105 -5 -128 -9z"/>
<path d="M770 572 c0 -4 4 -12 8 -17 5 -6 28 -57 52 -115 24 -58 50 -116 59
-128 16 -27 138 -118 191 -144 243 -119 364 -148 619 -148 145 0 385 32 446
60 11 5 70 30 130 56 196 85 232 117 314 278 34 66 59 121 57 123 -2 2 -45
-16 -95 -42 -50 -25 -144 -66 -209 -91 -64 -24 -127 -49 -139 -54 -11 -5 -59
-14 -105 -20 -45 -6 -103 -16 -128 -22 -113 -25 -376 -20 -575 11 -33 6 -88
14 -123 20 -35 5 -69 14 -75 19 -7 5 -34 14 -61 21 -26 7 -76 24 -110 40 -65
29 -203 119 -225 145 -14 17 -31 21 -31 8z"/>
</g>
</svg>
